<mxfile host="65bd71144e">
    <diagram id="8HhSMyb_BakoQHUVGRJk" name="Page-1">
        <mxGraphModel dx="618" dy="692" grid="1" gridSize="10" guides="1" tooltips="1" connect="1" arrows="1" fold="1" page="1" pageScale="1" pageWidth="827" pageHeight="1169" math="0" shadow="0">
            <root>
                <mxCell id="0"/>
                <mxCell id="1" parent="0"/>
                <mxCell id="10" value="analogique" style="edgeStyle=none;html=1;" parent="1" source="4" target="8" edge="1">
                    <mxGeometry relative="1" as="geometry"/>
                </mxCell>
                <mxCell id="11" value="analogique" style="edgeStyle=none;html=1;" parent="1" source="24" target="9" edge="1">
                    <mxGeometry relative="1" as="geometry">
                        <mxPoint as="offset"/>
                    </mxGeometry>
                </mxCell>
                <mxCell id="13" value="HTTP" style="edgeStyle=none;html=1;dashed=1;" parent="1" source="8" target="12" edge="1">
                    <mxGeometry x="0.0097" relative="1" as="geometry">
                        <Array as="points"/>
                        <mxPoint as="offset"/>
                    </mxGeometry>
                </mxCell>
                <mxCell id="8" value="ESP32&lt;div&gt;Capteur&lt;/div&gt;" style="rounded=1;whiteSpace=wrap;html=1;" parent="1" vertex="1">
                    <mxGeometry x="180" y="70" width="80" height="60" as="geometry"/>
                </mxCell>
                <mxCell id="9" value="Valves d&#39;irrigation" style="rhombus;whiteSpace=wrap;html=1;" parent="1" vertex="1">
                    <mxGeometry y="205" width="80" height="85" as="geometry"/>
                </mxCell>
                <mxCell id="12" value="Serveur (Raspberry)" style="rounded=1;whiteSpace=wrap;html=1;align=center;verticalAlign=top;" parent="1" vertex="1">
                    <mxGeometry x="380" y="80" width="90" height="50" as="geometry"/>
                </mxCell>
                <mxCell id="22" style="edgeStyle=none;html=1;dashed=1;endArrow=none;endFill=0;" parent="1" edge="1">
                    <mxGeometry relative="1" as="geometry">
                        <mxPoint x="360" y="360" as="sourcePoint"/>
                        <mxPoint x="360" as="targetPoint"/>
                    </mxGeometry>
                </mxCell>
                <mxCell id="4" value="Capteur humidité" style="ellipse;whiteSpace=wrap;html=1;aspect=fixed;" parent="1" vertex="1">
                    <mxGeometry x="10" y="70" width="60" height="60" as="geometry"/>
                </mxCell>
                <mxCell id="24" value="ESP32&lt;div&gt;Actionneur&lt;/div&gt;" style="rounded=1;whiteSpace=wrap;html=1;" parent="1" vertex="1">
                    <mxGeometry x="180" y="217.5" width="80" height="60" as="geometry"/>
                </mxCell>
                <mxCell id="25" value="HTTP" style="edgeStyle=none;html=1;dashed=1;" parent="1" source="12" target="24" edge="1">
                    <mxGeometry x="0.0007" relative="1" as="geometry">
                        <Array as="points"/>
                        <mxPoint x="266" y="70" as="sourcePoint"/>
                        <mxPoint x="370" y="180" as="targetPoint"/>
                        <mxPoint as="offset"/>
                    </mxGeometry>
                </mxCell>
                <mxCell id="26" value="Actionneur" style="rhombus;whiteSpace=wrap;html=1;" parent="1" vertex="1">
                    <mxGeometry x="255" y="425" width="90" height="90" as="geometry"/>
                </mxCell>
                <mxCell id="27" value="Controleur" style="rounded=1;whiteSpace=wrap;html=1;" parent="1" vertex="1">
                    <mxGeometry x="172" y="440" width="76" height="60" as="geometry"/>
                </mxCell>
                <mxCell id="28" value="Communication&lt;div&gt;&amp;nbsp;réseau&lt;/div&gt;" style="edgeStyle=none;html=1;dashed=1;" parent="1" edge="1">
                    <mxGeometry x="0.0049" relative="1" as="geometry">
                        <Array as="points"/>
                        <mxPoint x="125" y="410" as="sourcePoint"/>
                        <mxPoint x="125" y="530" as="targetPoint"/>
                        <mxPoint as="offset"/>
                    </mxGeometry>
                </mxCell>
                <mxCell id="29" value="Communication&lt;div&gt;physique&lt;/div&gt;" style="edgeStyle=none;html=1;" parent="1" edge="1">
                    <mxGeometry relative="1" as="geometry">
                        <mxPoint x="45" y="410" as="sourcePoint"/>
                        <mxPoint x="45" y="530" as="targetPoint"/>
                        <mxPoint as="offset"/>
                    </mxGeometry>
                </mxCell>
                <mxCell id="32" value="analogique" style="edgeStyle=none;html=1;" parent="1" source="31" target="8" edge="1">
                    <mxGeometry relative="1" as="geometry"/>
                </mxCell>
                <mxCell id="31" value="Capteur ultrason" style="ellipse;whiteSpace=wrap;html=1;aspect=fixed;" parent="1" vertex="1">
                    <mxGeometry x="10" y="130" width="60" height="60" as="geometry"/>
                </mxCell>
                <mxCell id="39" value="&lt;u style=&quot;&quot;&gt;&lt;font style=&quot;font-size: 17px;&quot;&gt;Materiels et protocoles :&lt;/font&gt;&lt;/u&gt;" style="text;html=1;align=center;verticalAlign=middle;resizable=0;points=[];autosize=1;strokeColor=none;fillColor=none;" parent="1" vertex="1">
                    <mxGeometry width="200" height="30" as="geometry"/>
                </mxCell>
                <mxCell id="40" style="edgeStyle=none;html=1;dashed=1;endArrow=none;endFill=0;" parent="1" edge="1">
                    <mxGeometry relative="1" as="geometry">
                        <mxPoint x="490" y="360" as="sourcePoint"/>
                        <mxPoint x="490" as="targetPoint"/>
                    </mxGeometry>
                </mxCell>
                <mxCell id="41" value="Client web" style="rounded=1;whiteSpace=wrap;html=1;align=center;verticalAlign=top;" parent="1" vertex="1">
                    <mxGeometry x="570" y="85" width="50" height="40" as="geometry"/>
                </mxCell>
                <mxCell id="42" value="HTTPS" style="edgeStyle=none;html=1;dashed=1;" parent="1" source="12" target="41" edge="1">
                    <mxGeometry relative="1" as="geometry">
                        <Array as="points"/>
                        <mxPoint x="270" y="73" as="sourcePoint"/>
                        <mxPoint x="460" y="170" as="targetPoint"/>
                        <mxPoint as="offset"/>
                    </mxGeometry>
                </mxCell>
                <mxCell id="43" value="Capteur" style="ellipse;whiteSpace=wrap;html=1;aspect=fixed;" parent="1" vertex="1">
                    <mxGeometry x="355" y="440" width="60" height="60" as="geometry"/>
                </mxCell>
                <mxCell id="44" value="&lt;u&gt;&lt;font style=&quot;font-size: 17px;&quot;&gt;Légende :&lt;/font&gt;&lt;/u&gt;" style="text;html=1;align=center;verticalAlign=middle;resizable=0;points=[];autosize=1;strokeColor=none;fillColor=none;fontSize=15;" parent="1" vertex="1">
                    <mxGeometry y="360" width="100" height="30" as="geometry"/>
                </mxCell>
                <mxCell id="46" value="&lt;div&gt;Système embarqué&lt;/div&gt;" style="text;html=1;align=center;verticalAlign=middle;resizable=0;points=[];autosize=1;strokeColor=none;fillColor=none;" parent="1" vertex="1">
                    <mxGeometry x="230" y="30" width="130" height="30" as="geometry"/>
                </mxCell>
                <mxCell id="47" value="&lt;div&gt;Passerelle IoT&lt;/div&gt;" style="text;html=1;align=center;verticalAlign=middle;resizable=0;points=[];autosize=1;strokeColor=none;fillColor=none;" parent="1" vertex="1">
                    <mxGeometry x="370" y="30" width="100" height="30" as="geometry"/>
                </mxCell>
                <mxCell id="48" value="&lt;div&gt;Interface utilisateur&lt;/div&gt;" style="text;html=1;align=center;verticalAlign=middle;resizable=0;points=[];autosize=1;strokeColor=none;fillColor=none;" parent="1" vertex="1">
                    <mxGeometry x="500" y="30" width="120" height="30" as="geometry"/>
                </mxCell>
            </root>
        </mxGraphModel>
    </diagram>
</mxfile>